<svg width="64" height="64" viewBox="0 0 64 64" fill="none" xmlns="http://www.w3.org/2000/svg">
  <!-- Building base -->
  <rect x="12" y="20" width="28" height="36" rx="2" fill="#3B82F6"/>
  <rect x="12" y="20" width="28" height="36" rx="2" fill="url(#gradient1)"/>
  
  <!-- Windows -->
  <rect x="17" y="26" width="5" height="5" rx="1" fill="white" opacity="0.9"/>
  <rect x="27" y="26" width="5" height="5" rx="1" fill="white" opacity="0.9"/>
  <rect x="17" y="35" width="5" height="5" rx="1" fill="white" opacity="0.9"/>
  <rect x="27" y="35" width="5" height="5" rx="1" fill="white" opacity="0.9"/>
  <rect x="17" y="44" width="5" height="5" rx="1" fill="white" opacity="0.9"/>
  <rect x="27" y="44" width="5" height="5" rx="1" fill="white" opacity="0.9"/>
  
  <!-- Door -->
  <rect x="22" y="49" width="6" height="7" rx="1" fill="#1E40AF"/>
  
  <!-- Checkmark circle badge -->
  <circle cx="46" cy="46" r="14" fill="#10B981"/>
  <circle cx="46" cy="46" r="14" fill="url(#gradient2)"/>
  
  <!-- Checkmark -->
  <path d="M42 46L44.5 48.5L50 43" stroke="white" stroke-width="3" stroke-linecap="round" stroke-linejoin="round"/>
  
  <!-- Gradients -->
  <defs>
    <linearGradient id="gradient1" x1="12" y1="20" x2="40" y2="56" gradientUnits="userSpaceOnUse">
      <stop offset="0%" stop-color="#3B82F6"/>
      <stop offset="100%" stop-color="#2563EB"/>
    </linearGradient>
    <linearGradient id="gradient2" x1="32" y1="32" x2="60" y2="60" gradientUnits="userSpaceOnUse">
      <stop offset="0%" stop-color="#10B981"/>
      <stop offset="100%" stop-color="#059669"/>
    </linearGradient>
  </defs>
</svg>
