
        <svg xmlns="http://www.w3.org/2000/svg" xmlns:xlink="http://www.w3.org/1999/xlink" version="1.1" width="3146.4605370219692" height="930.0244100895036" viewBox="0 0 3146.4605370219692 930.0244100895036">
			
			<g transform="scale(7.3230268510984535) translate(10, 10)">
				<defs id="SvgjsDefs6508"><linearGradient id="SvgjsLinearGradient6515"><stop id="SvgjsStop6516" stop-color="#147d6c" offset="0"/><stop id="SvgjsStop6517" stop-color="#1effff" offset="1"/></linearGradient><linearGradient id="SvgjsLinearGradient6518"><stop id="SvgjsStop6519" stop-color="#fbb040" offset="0"/><stop id="SvgjsStop6520" stop-color="#f9ed32" offset="1"/></linearGradient></defs><g id="SvgjsG6509" featureKey="symbolContainer" transform="matrix(1,0,0,1,0,0)" fill="#000"><rect xmlns="http://www.w3.org/2000/svg" width="98" height="107" rx="10" ry="10"/></g><g id="SvgjsG6510" featureKey="uHI19F-0" transform="matrix(0.7486310188977962,0,0,0.7486310188977962,11.735113579926338,16.25684490551102)" fill="#ffffff"><g xmlns="http://www.w3.org/2000/svg"><path d="M80.201,5H19.799c-4.829,0-8.759,3.929-8.759,8.759v76.51c0,2.613,2.119,4.732,4.732,4.732s4.732-2.119,4.732-4.732V14.464   h58.992v75.805c0,2.613,2.119,4.732,4.732,4.732c2.613,0,4.732-2.119,4.732-4.732v-76.51C88.96,8.929,85.03,5,80.201,5z"/><rect x="57.636" y="24.735" width="9.745" height="14.847"/><rect x="33.275" y="24.735" width="9.745" height="14.847"/><rect x="57.636" y="49.48" width="9.745" height="14.847"/><rect x="33.275" y="49.48" width="9.745" height="14.847"/><rect x="57.636" y="74.224" width="9.745" height="14.847"/><rect x="33.275" y="74.224" width="9.745" height="14.847"/></g></g><g id="SvgjsG6511" featureKey="8FbbNb-0" transform="matrix(3.451676528599606,0,0,3.451676528599606,112.47731582605863,3.2899424742899903)" fill="#000"><path d="M5.3 9.6 l1.8 0 c1.8 0 3 1.2 3 2.8 l0 4.8 c0 1.6 -1.2 2.8 -3 2.8 l-4.1 0 l0 3.4 l-1.4 0 l0 -13.6 l0.9 0 l0.2 1.4 l0.1 0 s0.8 -1.6 2.5 -1.6 z M7.1 10.8 l-1.8 0 c-1.5 0 -2.3 1.8 -2.3 1.8 l0 6.2 l4.1 0 c0.9 0 1.6 -0.7 1.6 -1.6 l0 -4.8 c0 -0.9 -0.7 -1.6 -1.6 -1.6 z M18.7 9.6 l0 1.3 l-1.9 0 c-1.5 0 -2.3 1.7 -2.3 1.7 l0 7.4 l-1.4 0 l0 -10.2 l0.9 0 l0.2 1.4 l0.1 0 s0.8 -1.6 2.5 -1.6 l1.9 0 z M21.7 12.4 l0 5 c0 0.9 0.7 1.6 1.6 1.6 l2.5 0 c0.9 0 1.6 -0.7 1.6 -1.6 l0 -5 c0 -0.9 -0.7 -1.6 -1.6 -1.6 l-2.5 0 c-0.9 0 -1.6 0.7 -1.6 1.6 z M20.299999999999997 17.4 l0 -5 c0 -1.6 1.2 -2.8 3 -2.8 l2.5 0 c1.8 0 3 1.2 3 2.8 l0 5 c0 1.6 -1.2 2.8 -3 2.8 l-2.5 0 c-1.9 0 -3 -1.2 -3 -2.8 z M35.5 9.6 l1.8 0 c1.8 0 3 1.2 3 2.8 l0 4.8 c0 1.6 -1.2 2.8 -3 2.8 l-4.1 0 l0 3.4 l-1.4 0 l0 -13.6 l0.9 0 l0.2 1.4 l0.1 0 s0.8 -1.6 2.5 -1.6 z M37.3 10.8 l-1.8 0 c-1.5 0 -2.3 1.8 -2.3 1.8 l0 6.2 l4.1 0 c0.9 0 1.6 -0.7 1.6 -1.6 l0 -4.8 c0 -0.9 -0.7 -1.6 -1.6 -1.6 z M47 9.6 l1.8 0 c1.8 0 3 1.2 3 2.8 l0 4.8 c0 1.6 -1.2 2.8 -3 2.8 l-4.1 0 l0 3.4 l-1.4 0 l0 -13.6 l0.9 0 l0.2 1.4 l0.1 0 s0.8 -1.6 2.5 -1.6 z M48.800000000000004 10.8 l-1.8 0 c-1.5 0 -2.3 1.8 -2.3 1.8 l0 6.2 l4.1 0 c0.9 0 1.6 -0.7 1.6 -1.6 l0 -4.8 c0 -0.9 -0.7 -1.6 -1.6 -1.6 z M54.800000000000004 17.2 l0 -11.2 l1.4 0 l0 11.2 c0 0.9 0.7 1.6 1.6 1.6 l0.3 0 l0 1.2 l-0.3 0 c-1.8 0 -3 -1.2 -3 -2.8 z M67.6 10.4 l-3.6 9.6 c-0.9 2.4 -1.9 3.4 -3.7 3.4 l-0.5 0 l0 -1.2 l0.5 0 c1 0 1.7 -0.7 2.2 -2.2 l-3.8 -9.6 l0 -0.6 l1.4 0 l3.1 8.6 l0.1 0 l2.9 -8.6 l1.4 0 l0 0.6 z M81.5 20 l-0.9 0 l-0.2 -1.4 l-0.1 0 s-0.8 1.6 -2.5 1.6 l-1.6 0 c-1.9 0 -3 -1.2 -3 -2.8 l0 -0.6 c0 -1.6 1.2 -2.8 3 -2.8 l3.9 0 l0 -1.4 c0 -0.9 -0.7 -1.6 -1.6 -1.6 l-4.4 0 l0 -1.2 l4.4 0 c1.8 0 3 1.2 3 2.8 l0 7.4 z M76.2 19 l1.6 0 c1.5 0 2.3 -1.8 2.3 -1.8 l0 -2 l-3.9 0 c-0.9 0 -1.6 0.7 -1.6 1.6 l0 0.6 c0 0.9 0.7 1.6 1.6 1.6 z M86.1 9.8 l0 10.2 l-1.4 0 l0 -10.2 l1.4 0 z M86.1 6 l0 2.4 l-1.4 0 l0 -2.4 l1.4 0 z"/></g>
			</g>
		</svg>
	